<svg xmlns="http://www.w3.org/2000/svg" viewBox="0 0 240 180" width="240" height="180">
  <defs>
    <linearGradient id="grad-1" x1="0%" y1="0%" x2="0%" y2="100%">
      <stop offset="0%" stop-color="#ff6555"/>
      <stop offset="50%" stop-color="#E74C3C"/>
      <stop offset="100%" stop-color="#ce3323"/>
    </linearGradient>
  </defs>
  <rect x="70" y="40" width="100" height="100" rx="10" fill="url(#grad-1)" stroke="rgba(0,0,0,0.25)" stroke-width="1.5"/>
  <line x1="70" y1="65" x2="170" y2="65" stroke="rgba(255,255,255,0.12)" stroke-width="1.5"/><line x1="95" y1="40" x2="95" y2="140" stroke="rgba(255,255,255,0.12)" stroke-width="1.5"/><line x1="70" y1="90" x2="170" y2="90" stroke="rgba(255,255,255,0.12)" stroke-width="1.5"/><line x1="120" y1="40" x2="120" y2="140" stroke="rgba(255,255,255,0.12)" stroke-width="1.5"/><line x1="70" y1="115" x2="170" y2="115" stroke="rgba(255,255,255,0.12)" stroke-width="1.5"/><line x1="145" y1="40" x2="145" y2="140" stroke="rgba(255,255,255,0.12)" stroke-width="1.5"/>
  <rect x="78" y="48" width="84" height="15" rx="5" fill="rgba(255,255,255,0.32)"/>


  <path d="M 90 94 Q 99 80, 108 94"
        stroke="#1a1a1a" stroke-width="4.5" fill="none" stroke-linecap="round"/>
  <path d="M 132 94 Q 141 80, 150 94"
        stroke="#1a1a1a" stroke-width="4.5" fill="none" stroke-linecap="round"/>
  <ellipse cx="88" cy="102" rx="8.5" ry="5.5" fill="rgba(255,140,170,0.6)"/>
  <ellipse cx="152" cy="102" rx="8.5" ry="5.5" fill="rgba(255,140,170,0.6)"/>
  <path d="M 98 104 Q 120 136, 142 104 Z"
        fill="#3D1820" stroke="#1a1a1a" stroke-width="2.5" stroke-linejoin="round"/>
  <path d="M 100 104 Q 113 110, 127 110 Q 140 104, 100 104"
        fill="white"/>
  <ellipse cx="120" cy="124" rx="12" ry="8" fill="#FF7C8C"/>
  <line x1="120" y1="118" x2="120" y2="130" stroke="#E84B5C" stroke-width="1.5"/>


  <text x="225" y="165"
        font-family="-apple-system, BlinkMacSystemFont, 'Segoe UI', sans-serif"
        font-weight="900"
        font-size="45"
        fill="white"
        stroke="rgba(0,0,0,0.6)"
        stroke-width="4.5"
        paint-order="stroke fill"
        text-anchor="end">1</text>
</svg>
