<svg xmlns="http://www.w3.org/2000/svg" viewBox="0 0 540 480" width="540" height="480">
  <defs>
    <linearGradient id="grad-13" x1="0%" y1="0%" x2="0%" y2="100%">
      <stop offset="0%" stop-color="#ffdd28"/>
      <stop offset="50%" stop-color="#F1C40F"/>
      <stop offset="100%" stop-color="#d8ab00"/>
    </linearGradient>
  </defs>
  <rect x="70" y="340" width="100" height="100" rx="10" fill="url(#grad-13)" stroke="rgba(0,0,0,0.25)" stroke-width="1.5"/>
  <circle cx="90" cy="365" r="4" fill="rgba(255,255,255,0.35)"/><circle cx="120" cy="365" r="4" fill="rgba(255,255,255,0.35)"/><circle cx="150" cy="365" r="4" fill="rgba(255,255,255,0.35)"/><circle cx="90" cy="392" r="4" fill="rgba(255,255,255,0.35)"/><circle cx="120" cy="392" r="4" fill="rgba(255,255,255,0.35)"/><circle cx="150" cy="392" r="4" fill="rgba(255,255,255,0.35)"/><circle cx="90" cy="419" r="4" fill="rgba(255,255,255,0.35)"/><circle cx="120" cy="419" r="4" fill="rgba(255,255,255,0.35)"/><circle cx="150" cy="419" r="4" fill="rgba(255,255,255,0.35)"/>
  <rect x="78" y="348" width="84" height="15" rx="5" fill="rgba(255,255,255,0.32)"/>
  <rect x="170" y="340" width="100" height="100" rx="10" fill="url(#grad-13)" stroke="rgba(0,0,0,0.25)" stroke-width="1.5"/>
  <circle cx="190" cy="365" r="4" fill="rgba(255,255,255,0.35)"/><circle cx="220" cy="365" r="4" fill="rgba(255,255,255,0.35)"/><circle cx="250" cy="365" r="4" fill="rgba(255,255,255,0.35)"/><circle cx="190" cy="392" r="4" fill="rgba(255,255,255,0.35)"/><circle cx="220" cy="392" r="4" fill="rgba(255,255,255,0.35)"/><circle cx="250" cy="392" r="4" fill="rgba(255,255,255,0.35)"/><circle cx="190" cy="419" r="4" fill="rgba(255,255,255,0.35)"/><circle cx="220" cy="419" r="4" fill="rgba(255,255,255,0.35)"/><circle cx="250" cy="419" r="4" fill="rgba(255,255,255,0.35)"/>
  <rect x="178" y="348" width="84" height="15" rx="5" fill="rgba(255,255,255,0.32)"/>
  <rect x="270" y="340" width="100" height="100" rx="10" fill="url(#grad-13)" stroke="rgba(0,0,0,0.25)" stroke-width="1.5"/>
  <circle cx="290" cy="365" r="4" fill="rgba(255,255,255,0.35)"/><circle cx="320" cy="365" r="4" fill="rgba(255,255,255,0.35)"/><circle cx="350" cy="365" r="4" fill="rgba(255,255,255,0.35)"/><circle cx="290" cy="392" r="4" fill="rgba(255,255,255,0.35)"/><circle cx="320" cy="392" r="4" fill="rgba(255,255,255,0.35)"/><circle cx="350" cy="392" r="4" fill="rgba(255,255,255,0.35)"/><circle cx="290" cy="419" r="4" fill="rgba(255,255,255,0.35)"/><circle cx="320" cy="419" r="4" fill="rgba(255,255,255,0.35)"/><circle cx="350" cy="419" r="4" fill="rgba(255,255,255,0.35)"/>
  <rect x="278" y="348" width="84" height="15" rx="5" fill="rgba(255,255,255,0.32)"/>
  <rect x="370" y="340" width="100" height="100" rx="10" fill="url(#grad-13)" stroke="rgba(0,0,0,0.25)" stroke-width="1.5"/>
  <circle cx="390" cy="365" r="4" fill="rgba(255,255,255,0.35)"/><circle cx="420" cy="365" r="4" fill="rgba(255,255,255,0.35)"/><circle cx="450" cy="365" r="4" fill="rgba(255,255,255,0.35)"/><circle cx="390" cy="392" r="4" fill="rgba(255,255,255,0.35)"/><circle cx="420" cy="392" r="4" fill="rgba(255,255,255,0.35)"/><circle cx="450" cy="392" r="4" fill="rgba(255,255,255,0.35)"/><circle cx="390" cy="419" r="4" fill="rgba(255,255,255,0.35)"/><circle cx="420" cy="419" r="4" fill="rgba(255,255,255,0.35)"/><circle cx="450" cy="419" r="4" fill="rgba(255,255,255,0.35)"/>
  <rect x="378" y="348" width="84" height="15" rx="5" fill="rgba(255,255,255,0.32)"/>
  <rect x="70" y="240" width="100" height="100" rx="10" fill="url(#grad-13)" stroke="rgba(0,0,0,0.25)" stroke-width="1.5"/>
  <circle cx="90" cy="265" r="4" fill="rgba(255,255,255,0.35)"/><circle cx="120" cy="265" r="4" fill="rgba(255,255,255,0.35)"/><circle cx="150" cy="265" r="4" fill="rgba(255,255,255,0.35)"/><circle cx="90" cy="292" r="4" fill="rgba(255,255,255,0.35)"/><circle cx="120" cy="292" r="4" fill="rgba(255,255,255,0.35)"/><circle cx="150" cy="292" r="4" fill="rgba(255,255,255,0.35)"/><circle cx="90" cy="319" r="4" fill="rgba(255,255,255,0.35)"/><circle cx="120" cy="319" r="4" fill="rgba(255,255,255,0.35)"/><circle cx="150" cy="319" r="4" fill="rgba(255,255,255,0.35)"/>
  <rect x="78" y="248" width="84" height="15" rx="5" fill="rgba(255,255,255,0.32)"/>
  <rect x="170" y="240" width="100" height="100" rx="10" fill="url(#grad-13)" stroke="rgba(0,0,0,0.25)" stroke-width="1.5"/>
  <circle cx="190" cy="265" r="4" fill="rgba(255,255,255,0.35)"/><circle cx="220" cy="265" r="4" fill="rgba(255,255,255,0.35)"/><circle cx="250" cy="265" r="4" fill="rgba(255,255,255,0.35)"/><circle cx="190" cy="292" r="4" fill="rgba(255,255,255,0.35)"/><circle cx="220" cy="292" r="4" fill="rgba(255,255,255,0.35)"/><circle cx="250" cy="292" r="4" fill="rgba(255,255,255,0.35)"/><circle cx="190" cy="319" r="4" fill="rgba(255,255,255,0.35)"/><circle cx="220" cy="319" r="4" fill="rgba(255,255,255,0.35)"/><circle cx="250" cy="319" r="4" fill="rgba(255,255,255,0.35)"/>
  <rect x="178" y="248" width="84" height="15" rx="5" fill="rgba(255,255,255,0.32)"/>
  <rect x="270" y="240" width="100" height="100" rx="10" fill="url(#grad-13)" stroke="rgba(0,0,0,0.25)" stroke-width="1.5"/>
  <circle cx="290" cy="265" r="4" fill="rgba(255,255,255,0.35)"/><circle cx="320" cy="265" r="4" fill="rgba(255,255,255,0.35)"/><circle cx="350" cy="265" r="4" fill="rgba(255,255,255,0.35)"/><circle cx="290" cy="292" r="4" fill="rgba(255,255,255,0.35)"/><circle cx="320" cy="292" r="4" fill="rgba(255,255,255,0.35)"/><circle cx="350" cy="292" r="4" fill="rgba(255,255,255,0.35)"/><circle cx="290" cy="319" r="4" fill="rgba(255,255,255,0.35)"/><circle cx="320" cy="319" r="4" fill="rgba(255,255,255,0.35)"/><circle cx="350" cy="319" r="4" fill="rgba(255,255,255,0.35)"/>
  <rect x="278" y="248" width="84" height="15" rx="5" fill="rgba(255,255,255,0.32)"/>
  <rect x="370" y="240" width="100" height="100" rx="10" fill="url(#grad-13)" stroke="rgba(0,0,0,0.25)" stroke-width="1.5"/>
  <circle cx="390" cy="265" r="4" fill="rgba(255,255,255,0.35)"/><circle cx="420" cy="265" r="4" fill="rgba(255,255,255,0.35)"/><circle cx="450" cy="265" r="4" fill="rgba(255,255,255,0.35)"/><circle cx="390" cy="292" r="4" fill="rgba(255,255,255,0.35)"/><circle cx="420" cy="292" r="4" fill="rgba(255,255,255,0.35)"/><circle cx="450" cy="292" r="4" fill="rgba(255,255,255,0.35)"/><circle cx="390" cy="319" r="4" fill="rgba(255,255,255,0.35)"/><circle cx="420" cy="319" r="4" fill="rgba(255,255,255,0.35)"/><circle cx="450" cy="319" r="4" fill="rgba(255,255,255,0.35)"/>
  <rect x="378" y="248" width="84" height="15" rx="5" fill="rgba(255,255,255,0.32)"/>
  <rect x="70" y="140" width="100" height="100" rx="10" fill="url(#grad-13)" stroke="rgba(0,0,0,0.25)" stroke-width="1.5"/>
  <circle cx="90" cy="165" r="4" fill="rgba(255,255,255,0.35)"/><circle cx="120" cy="165" r="4" fill="rgba(255,255,255,0.35)"/><circle cx="150" cy="165" r="4" fill="rgba(255,255,255,0.35)"/><circle cx="90" cy="192" r="4" fill="rgba(255,255,255,0.35)"/><circle cx="120" cy="192" r="4" fill="rgba(255,255,255,0.35)"/><circle cx="150" cy="192" r="4" fill="rgba(255,255,255,0.35)"/><circle cx="90" cy="219" r="4" fill="rgba(255,255,255,0.35)"/><circle cx="120" cy="219" r="4" fill="rgba(255,255,255,0.35)"/><circle cx="150" cy="219" r="4" fill="rgba(255,255,255,0.35)"/>
  <rect x="78" y="148" width="84" height="15" rx="5" fill="rgba(255,255,255,0.32)"/>
  <rect x="170" y="140" width="100" height="100" rx="10" fill="url(#grad-13)" stroke="rgba(0,0,0,0.25)" stroke-width="1.5"/>
  <circle cx="190" cy="165" r="4" fill="rgba(255,255,255,0.35)"/><circle cx="220" cy="165" r="4" fill="rgba(255,255,255,0.35)"/><circle cx="250" cy="165" r="4" fill="rgba(255,255,255,0.35)"/><circle cx="190" cy="192" r="4" fill="rgba(255,255,255,0.35)"/><circle cx="220" cy="192" r="4" fill="rgba(255,255,255,0.35)"/><circle cx="250" cy="192" r="4" fill="rgba(255,255,255,0.35)"/><circle cx="190" cy="219" r="4" fill="rgba(255,255,255,0.35)"/><circle cx="220" cy="219" r="4" fill="rgba(255,255,255,0.35)"/><circle cx="250" cy="219" r="4" fill="rgba(255,255,255,0.35)"/>
  <rect x="178" y="148" width="84" height="15" rx="5" fill="rgba(255,255,255,0.32)"/>
  <rect x="270" y="140" width="100" height="100" rx="10" fill="url(#grad-13)" stroke="rgba(0,0,0,0.25)" stroke-width="1.5"/>
  <circle cx="290" cy="165" r="4" fill="rgba(255,255,255,0.35)"/><circle cx="320" cy="165" r="4" fill="rgba(255,255,255,0.35)"/><circle cx="350" cy="165" r="4" fill="rgba(255,255,255,0.35)"/><circle cx="290" cy="192" r="4" fill="rgba(255,255,255,0.35)"/><circle cx="320" cy="192" r="4" fill="rgba(255,255,255,0.35)"/><circle cx="350" cy="192" r="4" fill="rgba(255,255,255,0.35)"/><circle cx="290" cy="219" r="4" fill="rgba(255,255,255,0.35)"/><circle cx="320" cy="219" r="4" fill="rgba(255,255,255,0.35)"/><circle cx="350" cy="219" r="4" fill="rgba(255,255,255,0.35)"/>
  <rect x="278" y="148" width="84" height="15" rx="5" fill="rgba(255,255,255,0.32)"/>
  <rect x="370" y="140" width="100" height="100" rx="10" fill="url(#grad-13)" stroke="rgba(0,0,0,0.25)" stroke-width="1.5"/>
  <circle cx="390" cy="165" r="4" fill="rgba(255,255,255,0.35)"/><circle cx="420" cy="165" r="4" fill="rgba(255,255,255,0.35)"/><circle cx="450" cy="165" r="4" fill="rgba(255,255,255,0.35)"/><circle cx="390" cy="192" r="4" fill="rgba(255,255,255,0.35)"/><circle cx="420" cy="192" r="4" fill="rgba(255,255,255,0.35)"/><circle cx="450" cy="192" r="4" fill="rgba(255,255,255,0.35)"/><circle cx="390" cy="219" r="4" fill="rgba(255,255,255,0.35)"/><circle cx="420" cy="219" r="4" fill="rgba(255,255,255,0.35)"/><circle cx="450" cy="219" r="4" fill="rgba(255,255,255,0.35)"/>
  <rect x="378" y="148" width="84" height="15" rx="5" fill="rgba(255,255,255,0.32)"/>
  <rect x="220" y="40" width="100" height="100" rx="10" fill="url(#grad-13)" stroke="rgba(0,0,0,0.25)" stroke-width="1.5"/>
  <circle cx="240" cy="65" r="4" fill="rgba(255,255,255,0.35)"/><circle cx="270" cy="65" r="4" fill="rgba(255,255,255,0.35)"/><circle cx="300" cy="65" r="4" fill="rgba(255,255,255,0.35)"/><circle cx="240" cy="92" r="4" fill="rgba(255,255,255,0.35)"/><circle cx="270" cy="92" r="4" fill="rgba(255,255,255,0.35)"/><circle cx="300" cy="92" r="4" fill="rgba(255,255,255,0.35)"/><circle cx="240" cy="119" r="4" fill="rgba(255,255,255,0.35)"/><circle cx="270" cy="119" r="4" fill="rgba(255,255,255,0.35)"/><circle cx="300" cy="119" r="4" fill="rgba(255,255,255,0.35)"/>
  <rect x="228" y="48" width="84" height="15" rx="5" fill="rgba(255,255,255,0.32)"/>


  <ellipse cx="249" cy="90" rx="14.72" ry="16" fill="white" stroke="#1a1a1a" stroke-width="2.5"/>
  <ellipse cx="291" cy="90" rx="14.72" ry="16" fill="white" stroke="#1a1a1a" stroke-width="2.5"/>
  <ellipse cx="250.5" cy="92" rx="8.8" ry="10.4" fill="#1a1a1a"/>
  <ellipse cx="292.5" cy="92" rx="8.8" ry="10.4" fill="#1a1a1a"/>
  <circle cx="253" cy="84.4" r="4.48" fill="white"/>
  <circle cx="295" cy="84.4" r="4.48" fill="white"/>
  <circle cx="245" cy="94" r="2.08" fill="white"/>
  <circle cx="287" cy="94" r="2.08" fill="white"/><path d="M 254 108 Q 270 125, 286 108"
            stroke="#1a1a1a" stroke-width="4.5" fill="none" stroke-linecap="round"/>


  <text x="525" y="465"
        font-family="-apple-system, BlinkMacSystemFont, 'Segoe UI', sans-serif"
        font-weight="900"
        font-size="45"
        fill="white"
        stroke="rgba(0,0,0,0.6)"
        stroke-width="4.5"
        paint-order="stroke fill"
        text-anchor="end">13</text>
</svg>
