<svg xmlns="http://www.w3.org/2000/svg" viewBox="0 0 240 280" width="240" height="280">
  <defs>
    <linearGradient id="grad-2" x1="0%" y1="0%" x2="0%" y2="100%">
      <stop offset="0%" stop-color="#ff973b"/>
      <stop offset="50%" stop-color="#E67E22"/>
      <stop offset="100%" stop-color="#cd6509"/>
    </linearGradient>
  </defs>
  <rect x="70" y="140" width="100" height="100" rx="10" fill="url(#grad-2)" stroke="rgba(0,0,0,0.25)" stroke-width="1.5"/>
  <circle cx="90" cy="165" r="4" fill="rgba(255,255,255,0.35)"/><circle cx="120" cy="165" r="4" fill="rgba(255,255,255,0.35)"/><circle cx="150" cy="165" r="4" fill="rgba(255,255,255,0.35)"/><circle cx="90" cy="192" r="4" fill="rgba(255,255,255,0.35)"/><circle cx="120" cy="192" r="4" fill="rgba(255,255,255,0.35)"/><circle cx="150" cy="192" r="4" fill="rgba(255,255,255,0.35)"/><circle cx="90" cy="219" r="4" fill="rgba(255,255,255,0.35)"/><circle cx="120" cy="219" r="4" fill="rgba(255,255,255,0.35)"/><circle cx="150" cy="219" r="4" fill="rgba(255,255,255,0.35)"/>
  <rect x="78" y="148" width="84" height="15" rx="5" fill="rgba(255,255,255,0.32)"/>
  <rect x="70" y="40" width="100" height="100" rx="10" fill="url(#grad-2)" stroke="rgba(0,0,0,0.25)" stroke-width="1.5"/>
  <circle cx="90" cy="65" r="4" fill="rgba(255,255,255,0.35)"/><circle cx="120" cy="65" r="4" fill="rgba(255,255,255,0.35)"/><circle cx="150" cy="65" r="4" fill="rgba(255,255,255,0.35)"/><circle cx="90" cy="92" r="4" fill="rgba(255,255,255,0.35)"/><circle cx="120" cy="92" r="4" fill="rgba(255,255,255,0.35)"/><circle cx="150" cy="92" r="4" fill="rgba(255,255,255,0.35)"/><circle cx="90" cy="119" r="4" fill="rgba(255,255,255,0.35)"/><circle cx="120" cy="119" r="4" fill="rgba(255,255,255,0.35)"/><circle cx="150" cy="119" r="4" fill="rgba(255,255,255,0.35)"/>
  <rect x="78" y="48" width="84" height="15" rx="5" fill="rgba(255,255,255,0.32)"/>

  <path d="M 65 160 Q 45 155, 20 120"
        stroke="#c86004" stroke-width="14.000000000000002" fill="none" stroke-linecap="round"/>
  <circle cx="20" cy="120" r="18" fill="#E67E22" stroke="#1a1a1a" stroke-width="2"/>
  <line x1="14" y1="115" x2="8" y2="100" stroke="#1a1a1a" stroke-width="2.5" stroke-linecap="round"/>
  <line x1="26" y1="115" x2="32" y2="100" stroke="#1a1a1a" stroke-width="2.5" stroke-linecap="round"/>

  <ellipse cx="99" cy="90" rx="14.72" ry="16" fill="white" stroke="#1a1a1a" stroke-width="2.5"/>
  <ellipse cx="141" cy="90" rx="14.72" ry="16" fill="white" stroke="#1a1a1a" stroke-width="2.5"/>
  <ellipse cx="100.5" cy="92" rx="8.8" ry="10.4" fill="#1a1a1a"/>
  <ellipse cx="142.5" cy="92" rx="8.8" ry="10.4" fill="#1a1a1a"/>
  <circle cx="103" cy="84.4" r="4.48" fill="white"/>
  <circle cx="145" cy="84.4" r="4.48" fill="white"/>
  <circle cx="95" cy="94" r="2.08" fill="white"/>
  <circle cx="137" cy="94" r="2.08" fill="white"/>
  <ellipse cx="88" cy="102" rx="8.5" ry="5.5" fill="rgba(255,140,170,0.6)"/>
  <ellipse cx="152" cy="102" rx="8.5" ry="5.5" fill="rgba(255,140,170,0.6)"/><path d="M 105 110 Q 122 122, 140 104"
            stroke="#1a1a1a" stroke-width="4.5" fill="none" stroke-linecap="round"/>


  <text x="225" y="265"
        font-family="-apple-system, BlinkMacSystemFont, 'Segoe UI', sans-serif"
        font-weight="900"
        font-size="45"
        fill="white"
        stroke="rgba(0,0,0,0.6)"
        stroke-width="4.5"
        paint-order="stroke fill"
        text-anchor="end">2</text>
</svg>
