<svg xmlns="http://www.w3.org/2000/svg" viewBox="0 0 500 500" width="500" height="500">
  <rect x="0" y="400" width="100" height="100" fill="#F1C40F" stroke="rgba(0,0,0,0.28)" stroke-width="1.5"/>
  <rect x="0" y="400" width="100" height="20" fill="rgba(255,255,255,0.22)"/>
  <rect x="0" y="480" width="100" height="20" fill="rgba(0,0,0,0.14)"/>
  <rect x="100" y="400" width="100" height="100" fill="#F1C40F" stroke="rgba(0,0,0,0.28)" stroke-width="1.5"/>
  <rect x="100" y="400" width="100" height="20" fill="rgba(255,255,255,0.22)"/>
  <rect x="100" y="480" width="100" height="20" fill="rgba(0,0,0,0.14)"/>
  <rect x="200" y="400" width="100" height="100" fill="#F1C40F" stroke="rgba(0,0,0,0.28)" stroke-width="1.5"/>
  <rect x="200" y="400" width="100" height="20" fill="rgba(255,255,255,0.22)"/>
  <rect x="200" y="480" width="100" height="20" fill="rgba(0,0,0,0.14)"/>
  <rect x="300" y="400" width="100" height="100" fill="#F1C40F" stroke="rgba(0,0,0,0.28)" stroke-width="1.5"/>
  <rect x="300" y="400" width="100" height="20" fill="rgba(255,255,255,0.22)"/>
  <rect x="300" y="480" width="100" height="20" fill="rgba(0,0,0,0.14)"/>
  <rect x="400" y="400" width="100" height="100" fill="#F1C40F" stroke="rgba(0,0,0,0.28)" stroke-width="1.5"/>
  <rect x="400" y="400" width="100" height="20" fill="rgba(255,255,255,0.22)"/>
  <rect x="400" y="480" width="100" height="20" fill="rgba(0,0,0,0.14)"/>
  <rect x="0" y="300" width="100" height="100" fill="#F1C40F" stroke="rgba(0,0,0,0.28)" stroke-width="1.5"/>
  <rect x="0" y="300" width="100" height="20" fill="rgba(255,255,255,0.22)"/>
  <rect x="0" y="380" width="100" height="20" fill="rgba(0,0,0,0.14)"/>
  <rect x="100" y="300" width="100" height="100" fill="#F1C40F" stroke="rgba(0,0,0,0.28)" stroke-width="1.5"/>
  <rect x="100" y="300" width="100" height="20" fill="rgba(255,255,255,0.22)"/>
  <rect x="100" y="380" width="100" height="20" fill="rgba(0,0,0,0.14)"/>
  <rect x="200" y="300" width="100" height="100" fill="#F1C40F" stroke="rgba(0,0,0,0.28)" stroke-width="1.5"/>
  <rect x="200" y="300" width="100" height="20" fill="rgba(255,255,255,0.22)"/>
  <rect x="200" y="380" width="100" height="20" fill="rgba(0,0,0,0.14)"/>
  <rect x="300" y="300" width="100" height="100" fill="#F1C40F" stroke="rgba(0,0,0,0.28)" stroke-width="1.5"/>
  <rect x="300" y="300" width="100" height="20" fill="rgba(255,255,255,0.22)"/>
  <rect x="300" y="380" width="100" height="20" fill="rgba(0,0,0,0.14)"/>
  <rect x="400" y="300" width="100" height="100" fill="#F1C40F" stroke="rgba(0,0,0,0.28)" stroke-width="1.5"/>
  <rect x="400" y="300" width="100" height="20" fill="rgba(255,255,255,0.22)"/>
  <rect x="400" y="380" width="100" height="20" fill="rgba(0,0,0,0.14)"/>
  <rect x="0" y="200" width="100" height="100" fill="#F1C40F" stroke="rgba(0,0,0,0.28)" stroke-width="1.5"/>
  <rect x="0" y="200" width="100" height="20" fill="rgba(255,255,255,0.22)"/>
  <rect x="0" y="280" width="100" height="20" fill="rgba(0,0,0,0.14)"/>
  <rect x="100" y="200" width="100" height="100" fill="#F1C40F" stroke="rgba(0,0,0,0.28)" stroke-width="1.5"/>
  <rect x="100" y="200" width="100" height="20" fill="rgba(255,255,255,0.22)"/>
  <rect x="100" y="280" width="100" height="20" fill="rgba(0,0,0,0.14)"/>
  <rect x="200" y="200" width="100" height="100" fill="#F1C40F" stroke="rgba(0,0,0,0.28)" stroke-width="1.5"/>
  <rect x="200" y="200" width="100" height="20" fill="rgba(255,255,255,0.22)"/>
  <rect x="200" y="280" width="100" height="20" fill="rgba(0,0,0,0.14)"/>
  <rect x="300" y="200" width="100" height="100" fill="#F1C40F" stroke="rgba(0,0,0,0.28)" stroke-width="1.5"/>
  <rect x="300" y="200" width="100" height="20" fill="rgba(255,255,255,0.22)"/>
  <rect x="300" y="280" width="100" height="20" fill="rgba(0,0,0,0.14)"/>
  <rect x="400" y="200" width="100" height="100" fill="#F1C40F" stroke="rgba(0,0,0,0.28)" stroke-width="1.5"/>
  <rect x="400" y="200" width="100" height="20" fill="rgba(255,255,255,0.22)"/>
  <rect x="400" y="280" width="100" height="20" fill="rgba(0,0,0,0.14)"/>
  <rect x="0" y="100" width="100" height="100" fill="#F1C40F" stroke="rgba(0,0,0,0.28)" stroke-width="1.5"/>
  <rect x="0" y="100" width="100" height="20" fill="rgba(255,255,255,0.22)"/>
  <rect x="0" y="180" width="100" height="20" fill="rgba(0,0,0,0.14)"/>
  <rect x="100" y="100" width="100" height="100" fill="#F1C40F" stroke="rgba(0,0,0,0.28)" stroke-width="1.5"/>
  <rect x="100" y="100" width="100" height="20" fill="rgba(255,255,255,0.22)"/>
  <rect x="100" y="180" width="100" height="20" fill="rgba(0,0,0,0.14)"/>
  <rect x="200" y="100" width="100" height="100" fill="#F1C40F" stroke="rgba(0,0,0,0.28)" stroke-width="1.5"/>
  <rect x="200" y="100" width="100" height="20" fill="rgba(255,255,255,0.22)"/>
  <rect x="200" y="180" width="100" height="20" fill="rgba(0,0,0,0.14)"/>
  <rect x="300" y="100" width="100" height="100" fill="#F1C40F" stroke="rgba(0,0,0,0.28)" stroke-width="1.5"/>
  <rect x="300" y="100" width="100" height="20" fill="rgba(255,255,255,0.22)"/>
  <rect x="300" y="180" width="100" height="20" fill="rgba(0,0,0,0.14)"/>
  <rect x="400" y="100" width="100" height="100" fill="#F1C40F" stroke="rgba(0,0,0,0.28)" stroke-width="1.5"/>
  <rect x="400" y="100" width="100" height="20" fill="rgba(255,255,255,0.22)"/>
  <rect x="400" y="180" width="100" height="20" fill="rgba(0,0,0,0.14)"/>
  <rect x="100" y="0" width="100" height="100" fill="#F1C40F" stroke="rgba(0,0,0,0.28)" stroke-width="1.5"/>
  <rect x="100" y="0" width="100" height="20" fill="rgba(255,255,255,0.22)"/>
  <rect x="100" y="80" width="100" height="20" fill="rgba(0,0,0,0.14)"/>
  <rect x="200" y="0" width="100" height="100" fill="#F1C40F" stroke="rgba(0,0,0,0.28)" stroke-width="1.5"/>
  <rect x="200" y="0" width="100" height="20" fill="rgba(255,255,255,0.22)"/>
  <rect x="200" y="80" width="100" height="20" fill="rgba(0,0,0,0.14)"/>
  <rect x="300" y="0" width="100" height="100" fill="#F1C40F" stroke="rgba(0,0,0,0.28)" stroke-width="1.5"/>
  <rect x="300" y="0" width="100" height="20" fill="rgba(255,255,255,0.22)"/>
  <rect x="300" y="80" width="100" height="20" fill="rgba(0,0,0,0.14)"/>

  <circle cx="231" cy="42" r="13.5" fill="white" stroke="rgba(0,0,0,0.15)" stroke-width="0.5"/>
  <circle cx="269" cy="42" r="13.5" fill="white" stroke="rgba(0,0,0,0.15)" stroke-width="0.5"/>
  <circle cx="231" cy="43" r="7.829999999999999" fill="#222"/>
  <circle cx="269" cy="43" r="7.829999999999999" fill="#222"/>
  <circle cx="218" cy="60" r="6" fill="rgba(255,80,120,0.45)"/>
  <circle cx="282" cy="60" r="6" fill="rgba(255,80,120,0.45)"/><path d="M 240 67 Q 250 74, 260 67"
            stroke="#222" stroke-width="4.5" fill="none" stroke-linecap="round"/>

  <text x="490" y="488"
        font-family="-apple-system, BlinkMacSystemFont, 'Segoe UI', sans-serif"
        font-weight="900"
        font-size="42"
        fill="white"
        stroke="rgba(0,0,0,0.6)"
        stroke-width="4.2"
        paint-order="stroke fill"
        text-anchor="end">23</text>
</svg>
