<svg xmlns="http://www.w3.org/2000/svg" viewBox="0 0 600 500" width="600" height="500">
  <rect x="0" y="400" width="100" height="100" fill="#FF6B9D" stroke="rgba(0,0,0,0.25)" stroke-width="1.5"/>
  <rect x="0" y="400" width="100" height="18" fill="rgba(255,255,255,0.2)"/>
  <rect x="0" y="482" width="100" height="18" fill="rgba(0,0,0,0.12)"/>
  <rect x="100" y="400" width="100" height="100" fill="#FF6B9D" stroke="rgba(0,0,0,0.25)" stroke-width="1.5"/>
  <rect x="100" y="400" width="100" height="18" fill="rgba(255,255,255,0.2)"/>
  <rect x="100" y="482" width="100" height="18" fill="rgba(0,0,0,0.12)"/>
  <rect x="200" y="400" width="100" height="100" fill="#FF6B9D" stroke="rgba(0,0,0,0.25)" stroke-width="1.5"/>
  <rect x="200" y="400" width="100" height="18" fill="rgba(255,255,255,0.2)"/>
  <rect x="200" y="482" width="100" height="18" fill="rgba(0,0,0,0.12)"/>
  <rect x="300" y="400" width="100" height="100" fill="#FF6B9D" stroke="rgba(0,0,0,0.25)" stroke-width="1.5"/>
  <rect x="300" y="400" width="100" height="18" fill="rgba(255,255,255,0.2)"/>
  <rect x="300" y="482" width="100" height="18" fill="rgba(0,0,0,0.12)"/>
  <rect x="400" y="400" width="100" height="100" fill="#FF6B9D" stroke="rgba(0,0,0,0.25)" stroke-width="1.5"/>
  <rect x="400" y="400" width="100" height="18" fill="rgba(255,255,255,0.2)"/>
  <rect x="400" y="482" width="100" height="18" fill="rgba(0,0,0,0.12)"/>
  <rect x="500" y="400" width="100" height="100" fill="#FF6B9D" stroke="rgba(0,0,0,0.25)" stroke-width="1.5"/>
  <rect x="500" y="400" width="100" height="18" fill="rgba(255,255,255,0.2)"/>
  <rect x="500" y="482" width="100" height="18" fill="rgba(0,0,0,0.12)"/>
  <rect x="0" y="300" width="100" height="100" fill="#FF6B9D" stroke="rgba(0,0,0,0.25)" stroke-width="1.5"/>
  <rect x="0" y="300" width="100" height="18" fill="rgba(255,255,255,0.2)"/>
  <rect x="0" y="382" width="100" height="18" fill="rgba(0,0,0,0.12)"/>
  <rect x="100" y="300" width="100" height="100" fill="#FF6B9D" stroke="rgba(0,0,0,0.25)" stroke-width="1.5"/>
  <rect x="100" y="300" width="100" height="18" fill="rgba(255,255,255,0.2)"/>
  <rect x="100" y="382" width="100" height="18" fill="rgba(0,0,0,0.12)"/>
  <rect x="200" y="300" width="100" height="100" fill="#FF6B9D" stroke="rgba(0,0,0,0.25)" stroke-width="1.5"/>
  <rect x="200" y="300" width="100" height="18" fill="rgba(255,255,255,0.2)"/>
  <rect x="200" y="382" width="100" height="18" fill="rgba(0,0,0,0.12)"/>
  <rect x="300" y="300" width="100" height="100" fill="#FF6B9D" stroke="rgba(0,0,0,0.25)" stroke-width="1.5"/>
  <rect x="300" y="300" width="100" height="18" fill="rgba(255,255,255,0.2)"/>
  <rect x="300" y="382" width="100" height="18" fill="rgba(0,0,0,0.12)"/>
  <rect x="400" y="300" width="100" height="100" fill="#FF6B9D" stroke="rgba(0,0,0,0.25)" stroke-width="1.5"/>
  <rect x="400" y="300" width="100" height="18" fill="rgba(255,255,255,0.2)"/>
  <rect x="400" y="382" width="100" height="18" fill="rgba(0,0,0,0.12)"/>
  <rect x="500" y="300" width="100" height="100" fill="#FF6B9D" stroke="rgba(0,0,0,0.25)" stroke-width="1.5"/>
  <rect x="500" y="300" width="100" height="18" fill="rgba(255,255,255,0.2)"/>
  <rect x="500" y="382" width="100" height="18" fill="rgba(0,0,0,0.12)"/>
  <rect x="0" y="200" width="100" height="100" fill="#FF6B9D" stroke="rgba(0,0,0,0.25)" stroke-width="1.5"/>
  <rect x="0" y="200" width="100" height="18" fill="rgba(255,255,255,0.2)"/>
  <rect x="0" y="282" width="100" height="18" fill="rgba(0,0,0,0.12)"/>
  <rect x="100" y="200" width="100" height="100" fill="#FF6B9D" stroke="rgba(0,0,0,0.25)" stroke-width="1.5"/>
  <rect x="100" y="200" width="100" height="18" fill="rgba(255,255,255,0.2)"/>
  <rect x="100" y="282" width="100" height="18" fill="rgba(0,0,0,0.12)"/>
  <rect x="200" y="200" width="100" height="100" fill="#FF6B9D" stroke="rgba(0,0,0,0.25)" stroke-width="1.5"/>
  <rect x="200" y="200" width="100" height="18" fill="rgba(255,255,255,0.2)"/>
  <rect x="200" y="282" width="100" height="18" fill="rgba(0,0,0,0.12)"/>
  <rect x="300" y="200" width="100" height="100" fill="#FF6B9D" stroke="rgba(0,0,0,0.25)" stroke-width="1.5"/>
  <rect x="300" y="200" width="100" height="18" fill="rgba(255,255,255,0.2)"/>
  <rect x="300" y="282" width="100" height="18" fill="rgba(0,0,0,0.12)"/>
  <rect x="400" y="200" width="100" height="100" fill="#FF6B9D" stroke="rgba(0,0,0,0.25)" stroke-width="1.5"/>
  <rect x="400" y="200" width="100" height="18" fill="rgba(255,255,255,0.2)"/>
  <rect x="400" y="282" width="100" height="18" fill="rgba(0,0,0,0.12)"/>
  <rect x="500" y="200" width="100" height="100" fill="#FF6B9D" stroke="rgba(0,0,0,0.25)" stroke-width="1.5"/>
  <rect x="500" y="200" width="100" height="18" fill="rgba(255,255,255,0.2)"/>
  <rect x="500" y="282" width="100" height="18" fill="rgba(0,0,0,0.12)"/>
  <rect x="0" y="100" width="100" height="100" fill="#FF6B9D" stroke="rgba(0,0,0,0.25)" stroke-width="1.5"/>
  <rect x="0" y="100" width="100" height="18" fill="rgba(255,255,255,0.2)"/>
  <rect x="0" y="182" width="100" height="18" fill="rgba(0,0,0,0.12)"/>
  <rect x="100" y="100" width="100" height="100" fill="#FF6B9D" stroke="rgba(0,0,0,0.25)" stroke-width="1.5"/>
  <rect x="100" y="100" width="100" height="18" fill="rgba(255,255,255,0.2)"/>
  <rect x="100" y="182" width="100" height="18" fill="rgba(0,0,0,0.12)"/>
  <rect x="200" y="100" width="100" height="100" fill="#FF6B9D" stroke="rgba(0,0,0,0.25)" stroke-width="1.5"/>
  <rect x="200" y="100" width="100" height="18" fill="rgba(255,255,255,0.2)"/>
  <rect x="200" y="182" width="100" height="18" fill="rgba(0,0,0,0.12)"/>
  <rect x="300" y="100" width="100" height="100" fill="#FF6B9D" stroke="rgba(0,0,0,0.25)" stroke-width="1.5"/>
  <rect x="300" y="100" width="100" height="18" fill="rgba(255,255,255,0.2)"/>
  <rect x="300" y="182" width="100" height="18" fill="rgba(0,0,0,0.12)"/>
  <rect x="400" y="100" width="100" height="100" fill="#FF6B9D" stroke="rgba(0,0,0,0.25)" stroke-width="1.5"/>
  <rect x="400" y="100" width="100" height="18" fill="rgba(255,255,255,0.2)"/>
  <rect x="400" y="182" width="100" height="18" fill="rgba(0,0,0,0.12)"/>
  <rect x="500" y="100" width="100" height="100" fill="#FF6B9D" stroke="rgba(0,0,0,0.25)" stroke-width="1.5"/>
  <rect x="500" y="100" width="100" height="18" fill="rgba(255,255,255,0.2)"/>
  <rect x="500" y="182" width="100" height="18" fill="rgba(0,0,0,0.12)"/>
  <rect x="50" y="0" width="100" height="100" fill="#FF6B9D" stroke="rgba(0,0,0,0.25)" stroke-width="1.5"/>
  <rect x="50" y="0" width="100" height="18" fill="rgba(255,255,255,0.2)"/>
  <rect x="50" y="82" width="100" height="18" fill="rgba(0,0,0,0.12)"/>
  <rect x="150" y="0" width="100" height="100" fill="#FF6B9D" stroke="rgba(0,0,0,0.25)" stroke-width="1.5"/>
  <rect x="150" y="0" width="100" height="18" fill="rgba(255,255,255,0.2)"/>
  <rect x="150" y="82" width="100" height="18" fill="rgba(0,0,0,0.12)"/>
  <rect x="250" y="0" width="100" height="100" fill="#FF6B9D" stroke="rgba(0,0,0,0.25)" stroke-width="1.5"/>
  <rect x="250" y="0" width="100" height="18" fill="rgba(255,255,255,0.2)"/>
  <rect x="250" y="82" width="100" height="18" fill="rgba(0,0,0,0.12)"/>
  <rect x="350" y="0" width="100" height="100" fill="#FF6B9D" stroke="rgba(0,0,0,0.25)" stroke-width="1.5"/>
  <rect x="350" y="0" width="100" height="18" fill="rgba(255,255,255,0.2)"/>
  <rect x="350" y="82" width="100" height="18" fill="rgba(0,0,0,0.12)"/>
  <rect x="450" y="0" width="100" height="100" fill="#FF6B9D" stroke="rgba(0,0,0,0.25)" stroke-width="1.5"/>
  <rect x="450" y="0" width="100" height="18" fill="rgba(255,255,255,0.2)"/>
  <rect x="450" y="82" width="100" height="18" fill="rgba(0,0,0,0.12)"/>

  <circle cx="281" cy="42" r="13.5" fill="white"/>
  <circle cx="282" cy="43" r="8.1" fill="#222"/>
  <circle cx="319" cy="42" r="13.5" fill="white"/>
  <circle cx="320" cy="43" r="8.1" fill="#222"/>
  <path d="M 282 63 Q 300 82, 318 63"
        stroke="#222" stroke-width="4.5" fill="none" stroke-linecap="round"/>

  <text x="590" y="488"
        font-family="-apple-system, BlinkMacSystemFont, 'Segoe UI', sans-serif"
        font-weight="900"
        font-size="45"
        fill="white"
        stroke="rgba(0,0,0,0.55)"
        stroke-width="3.6"
        paint-order="stroke fill"
        text-anchor="end">29</text>
</svg>
