<svg xmlns="http://www.w3.org/2000/svg" viewBox="0 0 200 200" width="200" height="200">
  <rect x="0" y="100" width="100" height="100" fill="#27AE60" stroke="rgba(0,0,0,0.25)" stroke-width="1.5"/>
  <rect x="0" y="100" width="100" height="18" fill="rgba(255,255,255,0.2)"/>
  <rect x="0" y="182" width="100" height="18" fill="rgba(0,0,0,0.12)"/>
  <rect x="100" y="100" width="100" height="100" fill="#27AE60" stroke="rgba(0,0,0,0.25)" stroke-width="1.5"/>
  <rect x="100" y="100" width="100" height="18" fill="rgba(255,255,255,0.2)"/>
  <rect x="100" y="182" width="100" height="18" fill="rgba(0,0,0,0.12)"/>
  <rect x="0" y="0" width="100" height="100" fill="#27AE60" stroke="rgba(0,0,0,0.25)" stroke-width="1.5"/>
  <rect x="0" y="0" width="100" height="18" fill="rgba(255,255,255,0.2)"/>
  <rect x="0" y="82" width="100" height="18" fill="rgba(0,0,0,0.12)"/>
  <rect x="100" y="0" width="100" height="100" fill="#27AE60" stroke="rgba(0,0,0,0.25)" stroke-width="1.5"/>
  <rect x="100" y="0" width="100" height="18" fill="rgba(255,255,255,0.2)"/>
  <rect x="100" y="82" width="100" height="18" fill="rgba(0,0,0,0.12)"/>

  <circle cx="81" cy="42" r="13.5" fill="white"/>
  <circle cx="82" cy="43" r="8.1" fill="#222"/>
  <circle cx="119" cy="42" r="13.5" fill="white"/>
  <circle cx="120" cy="43" r="8.1" fill="#222"/>
  <path d="M 82 63 Q 100 82, 118 63"
        stroke="#222" stroke-width="4.5" fill="none" stroke-linecap="round"/>

  <text x="190" y="188"
        font-family="-apple-system, BlinkMacSystemFont, 'Segoe UI', sans-serif"
        font-weight="900"
        font-size="45"
        fill="white"
        stroke="rgba(0,0,0,0.55)"
        stroke-width="3.6"
        paint-order="stroke fill"
        text-anchor="end">4</text>
</svg>
